<?xml version="1.0" encoding="utf-8"?>
<!-- Generator: Adobe Illustrator 27.0.1, SVG Export Plug-In . SVG Version: 6.00 Build 0)  -->
<svg version="1.1" id="Layer_1" xmlns="http://www.w3.org/2000/svg" xmlns:xlink="http://www.w3.org/1999/xlink" x="0px" y="0px"
	 viewBox="0 0 608.4 608.4" style="enable-background:new 0 0 608.4 608.4;" xml:space="preserve">
<style type="text/css">
	.st0{fill:#FFFFFF;}
	.st1{fill:#D5D6D5;}
	.st2{fill:#FCB913;}
	.st3{fill:#F37424;}
	.st4{fill:#008080;}
</style>
<circle class="st0" cx="304.2" cy="304.2" r="304.2"/>
<g>
	<path class="st1" d="M300.4,203.4c-50.6-26.3-107-41.5-160.5-41.6l-0.2,0.4c26.7,11.7,52.2,29,74.8,50.1
		c36.6,1.3,69.6,9.2,98.7,22.5C309.7,224,305.4,213.5,300.4,203.4L300.4,203.4z"/>
	<path class="st1" d="M328.1,326.7c-0.5-0.2-1-0.5-1.4-0.7c-13.6-6.7-27.7-12.4-42-17c-26.4-8.5-53.6-13.2-79.9-13.3
		c4,1.6,7.9,3.4,11.9,5.3c13.6,6.8,27.1,15.8,39.8,26.3c13.3,0.7,26,2.5,37.9,5.5c11.2,2.8,21.8,6.6,31.7,11.3
		c3.2,1.5,6.4,3.2,9.5,4.9C333.4,341.4,330.9,333.9,328.1,326.7L328.1,326.7z"/>
	<path class="st2" d="M434,550.2c0-50.8-41.8-97.5-92.4-125.7c-6.5-3.6-13.1-6.9-19.8-9.9c-2.4-1.1-4.8-2.1-7.2-3.1
		c-2.6-1-5.2-2-7.8-3c-12.4-4.5-24.9-7.9-37-9.8c-8.2-1.3-16.4-2-24.4-2V327c3.7,0,7.4,0.1,11,0.3c13.3,0.7,26,2.5,37.9,5.5
		c11.2,2.8,21.8,6.6,31.7,11.3c3.2,1.5,6.4,3.1,9.5,4.9C400.2,385.1,433.9,461.6,434,550.2z"/>
	<path class="st3" d="M468.7,517.1c-1-81.1-63.1-151.8-140.6-190.4c-0.5-1.1-0.9-2.3-1.4-3.4c0,0.9,0,1.8,0,2.7
		c-13.6-6.7-27.7-12.4-42-17c-26.4-8.5-53.6-13.2-79.9-13.3c-0.4-0.2-0.9-0.4-1.3-0.5v-83.1c3.8,0,7.5,0.1,11.2,0.2
		c36.6,1.3,69.5,9.2,98.7,22.5C413.2,280.3,468.1,389.5,468.7,517.1z"/>
	<path class="st0" d="M326.6,326c0.5,0.2,1,0.5,1.4,0.7c-0.5-1.1-0.9-2.3-1.4-3.4C326.6,324.2,326.6,325.1,326.6,326z"/>
	<path class="st4" d="M468.7,438.7c0-99.4-74.3-186.5-168.2-235.3c-50.6-26.3-107-41.5-160.5-41.6h-0.2V58.2
		C349.9,58.2,468.7,228.6,468.7,438.7z"/>
</g>
</svg>
