<?xml version="1.0" encoding="UTF-8"?>
<svg id="Layer_1" data-name="Layer 1" xmlns="http://www.w3.org/2000/svg" viewBox="0 0 1778.39 608.41">
  <path d="M187.6,169.53C128.48,138.79,62.69,121.03,.18,120.99l-.18,.41c31.21,13.71,60.9,33.9,87.28,58.48,42.69,1.55,81.2,10.73,115.23,26.24-4.14-12.56-9.1-24.78-14.91-36.59Z" style="fill: #d5d6d5;"/>
  <path d="M219.85,313.49c-.55-.28-1.11-.55-1.66-.82-15.91-7.82-32.36-14.49-49.07-19.85-30.85-9.91-62.56-15.38-93.32-15.56,4.66,1.86,9.28,3.93,13.84,6.21,15.88,7.94,31.61,18.42,46.42,30.74,15.58,.77,30.31,2.96,44.19,6.43,13.12,3.29,25.48,7.73,37.06,13.22,3.77,1.79,7.47,3.68,11.08,5.68-2.33-8.94-5.18-17.63-8.54-26.06Z" style="fill: #d5d6d5;"/>
  <path d="M343.52,574.46c-.05-59.32-48.81-113.78-107.87-146.72-7.57-4.22-15.31-8.08-23.14-11.56-2.8-1.24-5.62-2.44-8.44-3.59-3.02-1.22-6.04-2.38-9.06-3.48-14.48-5.28-29.06-9.18-43.23-11.46-9.59-1.55-19.12-2.3-28.54-2.31v-81.45c4.33,0,8.6,.11,12.82,.32,15.57,.77,30.31,2.96,44.19,6.44,13.12,3.28,25.47,7.73,37.06,13.22,3.77,1.79,7.47,3.67,11.08,5.68,75.65,42.07,115.07,131.44,115.13,234.91Z" style="fill: #fcb913;"/>
  <path d="M384.01,535.81c-1.13-94.63-73.68-177.25-164.16-222.32-.53-1.33-1.08-2.65-1.64-3.97,0,1.05,0,2.1-.03,3.15-15.91-7.82-32.36-14.49-49.07-19.85-30.85-9.91-62.56-15.38-93.32-15.56-.52-.21-1.03-.41-1.55-.61v-97c4.39,0,8.73,.08,13.04,.24,42.69,1.55,81.19,10.73,115.23,26.23,116.69,53.16,180.87,180.64,181.5,329.69Z" style="fill: #f37424;"/>
  <path d="M218.18,312.67c.55,.27,1.11,.54,1.66,.82-.53-1.33-1.08-2.65-1.63-3.97,0,1.05-.02,2.1-.03,3.15Z" style="fill: #fff;"/>
  <path d="M384.02,444.29c0-115.99-86.71-217.71-196.42-274.76C128.48,138.79,62.69,121.03,.18,120.99H0V0C245.37,0,384.02,198.93,384.02,444.29Z" style="fill: teal;"/>
  <g>
    <path d="M457.87,307.19c-13.14-6.92-22.83-15.69-29.04-26.29-6.22-10.6-9.33-21.55-9.33-32.86,0-7.63,1.27-14.42,3.82-20.35,3.11-7.35,7.84-13,14.2-16.96,6.36-3.96,13.07-5.94,20.14-5.94,8.76,0,15.83,2.54,21.2,7.63-7.07,3.96-12.51,9.61-16.32,16.96-3.82,7.35-5.72,15.26-5.72,23.74,0,12.72,4.03,23.74,12.08,33.07,8.06,9.33,19.29,13.99,33.71,13.99,2.82,0,5.09-.14,6.78-.42,11.3-1.13,20.92-5.65,28.83-13.57s11.87-17.66,11.87-29.26c0-3.39-.42-6.92-1.27-10.6-1.98-9.61-7.35-18.66-16.11-27.14-8.76-8.48-21.06-18.37-36.89-29.68-15.26-11.3-27.56-21.2-36.89-29.68-9.33-8.48-17.32-18.3-23.96-29.47-6.64-11.16-9.96-23.53-9.96-37.1,0-16.11,4.09-30.59,12.3-43.46,8.2-12.86,19.64-22.82,34.34-29.89,14.69-7.06,31.52-10.6,50.46-10.6,12.72,0,23.32,2.27,31.8,6.78,8.48,4.53,17.24,10.75,26.29,18.66,4.52,4.24,8.33,7.42,11.45,9.54,3.11,2.12,6.36,3.18,9.75,3.18,2.54,0,4.8-.56,6.78-1.7l2.97,5.09c-13,10.18-24.59,21.62-34.77,34.34-10.18,12.72-18.23,24.74-24.17,36.04l-5.09-5.09c5.65-10.74,8.48-22.9,8.48-36.46s-3.18-25.79-9.54-35.83c-6.36-10.03-15.34-15.05-26.92-15.05-10.18,0-18.59,3.75-25.23,11.24-6.64,7.49-9.96,16.89-9.96,28.2,0,9.9,2.9,20.29,8.69,31.16,5.79,10.88,14.63,21.27,26.5,31.16,14.13,11.59,20.78,16.96,19.93,16.11,15.26,11.87,27.2,21.77,35.83,29.68,8.62,7.92,16.18,16.61,22.68,26.08,6.5,9.47,10.45,19.58,11.87,30.32,.28,2.27,.42,5.66,.42,10.18,0,23.18-9.05,41.41-27.14,54.7-18.09,13.28-43.25,19.93-75.47,19.93-19.79,0-36.25-3.46-49.4-10.39Z"/>
    <path d="M634.46,416.8c3.67-.57,6.71-3.11,9.12-7.63,2.4-4.52,3.6-11.31,3.6-20.35V132.29c0-10.45-1.84-18.23-5.51-23.32-3.68-5.09-8.2-7.77-13.57-8.06v-4.66c12.15,.85,24.17,1.27,36.04,1.27s23.74-.42,35.62-1.27c1.97,0,2.97,2.48,2.97,7.42v9.12c6.21-6.5,12.72-11.73,19.5-15.69,6.78-3.96,16.68-5.94,29.68-5.94,14.69,0,27.91,4.95,39.64,14.84,11.73,9.9,20.92,23.25,27.56,40.07,6.64,16.82,9.96,35.4,9.96,55.76,0,24.31-4.39,44.38-13.14,60.21-8.77,15.83-19.72,27.28-32.86,34.34-13.14,7.07-26.65,10.6-40.49,10.6-7.92,0-15.05-1.06-21.41-3.18-6.36-2.12-11.38-5.15-15.05-9.12v69.96c-4.81-.29-9.19,1.62-13.14,5.72-3.96,4.09-8.9,10.53-14.84,19.29-7.63,11.3-14.56,19.99-20.78,26.08-6.22,6.08-13.85,9.12-22.9,9.12v-8.06Zm119.99-138.65c5.09-9.04,9.04-20.84,11.87-35.4,2.82-14.55,4.24-30.17,4.24-46.85,0-27.41-2.97-49.25-8.9-65.51-5.94-16.25-13.57-24.38-22.9-24.38-2.27,0-4.52,.42-6.78,1.27-9.05,3.96-15.55,13.14-19.5,27.56-3.96,14.42-6.08,34.21-6.36,59.36v32.22c.56,26.29,3.88,44.17,9.96,53.64,6.08,9.47,13.21,13.64,21.41,12.51,6.21-.56,11.87-5.37,16.96-14.42Z"/>
    <path d="M906.24,312.07c-15.83,0-29.83-4.38-41.98-13.14-12.16-8.76-18.23-22.47-18.23-41.13,0-12.44,3.25-23.32,9.75-32.65,6.5-9.33,14.34-17.17,23.53-23.53,9.18-6.36,20.84-13.21,34.98-20.56,15.26-8.2,26.43-15.12,33.5-20.78,7.06-5.65,10.6-12.15,10.6-19.5,0-17.24-8.06-27.7-24.17-31.38-.85-.28-2.27-.42-4.24-.42-4.53,0-8.27,1.06-11.24,3.18-2.97,2.12-4.45,4.74-4.45,7.84,0,2.27,.99,4.53,2.97,6.78,4.24,4.24,6.36,10.6,6.36,19.08,0,9.05-3.11,16.75-9.33,23.11-6.22,6.36-13.85,9.54-22.9,9.54s-16.75-3.18-23.11-9.54c-6.36-6.36-9.54-14.06-9.54-23.11,0-10.18,3.74-19.01,11.24-26.5,7.49-7.49,17.17-13.28,29.04-17.38,11.87-4.09,24.17-6.15,36.89-6.15,14.98,0,28.62,2.83,40.92,8.48,12.3,5.66,22.12,14.2,29.47,25.65,7.35,11.45,11.02,25.37,11.02,41.76v98.79c0,10.46,1.91,18.23,5.72,23.32,3.82,5.09,8.41,7.63,13.78,7.63v5.09c-11.87-.85-23.89-1.27-36.04-1.27s-23.74,.42-35.62,1.27c-1.42,0-2.33-1.2-2.76-3.6-.42-2.4-.63-4.94-.63-7.63v-5.72c-11.59,12.72-27.85,20.07-48.76,22.05l-6.78,.42Zm47.49-43.46c3.11-12.57,4.8-32.71,5.09-60.42v-42.82c-2.54,5.37-5.45,10.18-8.69,14.42-3.25,4.24-7.71,9.47-13.36,15.69-9.05,9.61-16.4,18.8-22.05,27.56-5.66,8.76-9.75,19.93-12.3,33.5-.57,2.27-.85,5.66-.85,10.18,0,7.92,1.83,14.7,5.51,20.35,3.67,5.66,8.76,8.48,15.26,8.48,2.82,0,6.36-.7,10.6-2.12,10.74-3.96,17.66-12.22,20.78-24.8Z"/>
    <path d="M1053.79,301.47c5.37,0,9.89-2.54,13.57-7.63,3.67-5.09,5.51-12.86,5.51-23.32V131.87c0-10.45-1.84-18.16-5.51-23.11-3.68-4.94-8.2-7.42-13.57-7.42v-5.09c13.85,.85,25.44,1.27,34.77,1.27,8.2,0,17.1-.28,26.71-.85,3.11-.28,7.06-.42,11.87-.42,3.11,0,4.66,6.93,4.66,20.78,8.48-15.83,23.04-23.74,43.67-23.74,12.44,0,23.25,4.24,32.44,12.72,9.18,8.48,13.78,19.36,13.78,32.65,0,10.18-3.11,18.87-9.33,26.08-6.22,7.21-13.99,10.81-23.32,10.81s-16.75-3.11-23.11-9.33c-6.36-6.21-9.54-13.85-9.54-22.9s2.12-15.26,6.36-19.5c2.54-3.11,3.82-5.94,3.82-8.48,0-2.26-.78-4.17-2.33-5.72-1.56-1.55-3.6-2.33-6.15-2.33-1.98,0-3.96,.57-5.94,1.7-6.78,3.39-11.87,10.39-15.26,20.99-3.39,10.6-5.09,29.04-5.09,55.33v85.22c0,10.46,1.83,18.23,5.51,23.32,3.67,5.09,8.2,7.63,13.57,7.63v5.09c-22.05-1.13-38.16-1.7-48.34-1.7s-26.43,.57-48.76,1.7v-5.09Z"/>
    <path d="M1305.43,360.62c-6.36-6.08-13.08-14.63-20.14-25.65-6.22-9.05-11.31-15.62-15.26-19.72-3.96-4.1-8.34-6-13.14-5.72V117.88h-18.23v-17.81h.42c9.04,0,16.39-1.62,22.05-4.88,5.65-3.25,9.96-7.21,12.93-11.87s6.29-11.09,9.96-19.29c4.24-9.89,8.48-17.6,12.72-23.11,4.24-5.51,10.45-9.26,18.66-11.24l4.66,.85c-1.98,3.11-3.18,7.42-3.6,12.93-.42,5.51-.64,13.78-.64,24.8v31.8h16.96v17.81h-16.96v215.82c0,9.04,1.2,15.83,3.6,20.35,2.4,4.52,5.3,7.06,8.69,7.63v8.06c-8.77,0-16.32-3.04-22.68-9.12Z"/>
    <path d="M1409.94,312.07c-15.83,0-29.83-4.38-41.98-13.14-12.16-8.76-18.23-22.47-18.23-41.13,0-12.44,3.25-23.32,9.75-32.65,6.5-9.33,14.34-17.17,23.53-23.53,9.18-6.36,20.84-13.21,34.98-20.56,15.26-8.2,26.43-15.12,33.5-20.78,7.06-5.65,10.6-12.15,10.6-19.5,0-17.24-8.06-27.7-24.17-31.38-.85-.28-2.27-.42-4.24-.42-4.52,0-8.27,1.06-11.24,3.18-2.97,2.12-4.45,4.74-4.45,7.84,0,2.27,.99,4.53,2.97,6.78,4.24,4.24,6.36,10.6,6.36,19.08,0,9.05-3.11,16.75-9.33,23.11-6.22,6.36-13.85,9.54-22.9,9.54s-16.75-3.18-23.11-9.54-9.54-14.06-9.54-23.11c0-10.18,3.74-19.01,11.24-26.5,7.49-7.49,17.17-13.28,29.04-17.38,11.87-4.09,24.17-6.15,36.89-6.15,14.98,0,28.62,2.83,40.92,8.48,12.3,5.66,22.11,14.2,29.47,25.65,7.35,11.45,11.02,25.37,11.02,41.76v98.79c0,10.46,1.91,18.23,5.72,23.32,3.82,5.09,8.41,7.63,13.78,7.63v5.09c-11.87-.85-23.89-1.27-36.04-1.27s-23.74,.42-35.62,1.27c-1.42,0-2.33-1.2-2.76-3.6-.42-2.4-.64-4.94-.64-7.63v-5.72c-11.59,12.72-27.85,20.07-48.76,22.05l-6.78,.42Zm47.49-43.46c3.11-12.57,4.8-32.71,5.09-60.42v-42.82c-2.54,5.37-5.45,10.18-8.69,14.42-3.25,4.24-7.71,9.47-13.36,15.69-9.05,9.61-16.4,18.8-22.05,27.56-5.66,8.76-9.75,19.93-12.3,33.5-.57,2.27-.85,5.66-.85,10.18,0,7.92,1.83,14.7,5.51,20.35,3.67,5.66,8.76,8.48,15.26,8.48,2.82,0,6.36-.7,10.6-2.12,10.74-3.96,17.66-12.22,20.78-24.8Z"/>
    <path d="M1557.49,301.47c5.37,0,9.89-2.54,13.57-7.63,3.67-5.09,5.51-12.86,5.51-23.32V131.87c0-10.45-1.84-18.16-5.51-23.11-3.68-4.94-8.2-7.42-13.57-7.42v-5.09c13.85,.85,25.44,1.27,34.77,1.27,8.2,0,17.1-.28,26.71-.85,3.11-.28,7.06-.42,11.87-.42,3.11,0,4.66,6.93,4.66,20.78,5.94-7.63,13.57-13.57,22.9-17.81,9.33-4.24,19.22-6.36,29.68-6.36,12.43,0,23.96,3.04,34.56,9.12,10.6,6.08,19.22,15.55,25.86,28.41,6.64,12.87,9.96,28.9,9.96,48.12l.42,58.09v33.92c0,10.46,1.91,18.23,5.72,23.32,3.82,5.09,8.41,7.63,13.78,7.63v5.09c-22.33-1.13-38.58-1.7-48.76-1.7s-26.43,.57-48.76,1.7v-5.09c5.37,0,9.96-2.54,13.78-7.63,3.82-5.09,5.72-12.86,5.72-23.32v-22.05c-.29-12.15-.42-28.26-.42-48.34,0-22.9-.99-40.84-2.97-53.85-1.98-13-5.02-22.26-9.12-27.77-4.1-5.51-9.69-8.27-16.75-8.27-4.53,0-9.4,2.27-14.63,6.78-5.23,4.53-9.96,12.37-14.2,23.53-4.24,11.17-6.51,26.08-6.78,44.73l-.42,121.26c-11.87-.85-24.74-1.27-38.58-1.27s-26.57,.42-39.01,1.27v-5.09Z"/>
  </g>
  <g>
    <path d="M543.75,335.03l1.73-2.07c1.38-2.76,3.85-3.74,7.42-2.93,3.56,.81,7.07,2.47,10.52,5,3.45,2.53,6.26,5.64,8.45,9.31,2.18,3.68,2.47,7.02,.86,10-12.42,15.41-23.17,31.69-32.26,48.82-9.09,17.14-16.62,33.98-22.6,50.54-5.98,16.56-10.47,32.32-13.46,47.26-2.99,14.95-4.66,28.06-5,39.33-.34,11.27,.57,20.18,2.76,26.74,2.18,6.56,5.46,9.6,9.83,9.14,4.14-.23,9.6-3.16,16.39-8.8,6.78-5.63,14.2-13.16,22.25-22.6,8.05-9.43,16.56-20.41,25.53-32.95,8.97-12.53,17.77-25.82,26.39-39.85,8.62-14.03,16.85-28.46,24.67-43.3,7.82-14.83,14.72-29.27,20.7-43.3,5.98-14.03,10.7-27.31,14.15-39.85,3.45-12.53,5.18-23.51,5.18-32.95-.23-2.3-1.15-3.56-2.76-3.79-1.61-.23-3.1-.29-4.48-.17-1.38,.12-2.24-.05-2.59-.52-.35-.46,.63-2.07,2.93-4.83,3.68-4.37,7.25-6.38,10.7-6.04,3.45,.34,6.5,2.07,9.14,5.17,2.64,3.1,4.66,7.07,6.04,11.9,1.38,4.83,1.95,9.55,1.73,14.14,.92,9.66,.11,20.82-2.42,33.47-2.53,12.65-6.38,26.05-11.56,40.19-5.18,14.14-11.39,28.69-18.63,43.64-7.24,14.95-15.07,29.62-23.46,43.99-8.4,14.38-17.08,28.12-26.05,41.23-8.97,13.11-17.83,24.9-26.56,35.36-8.74,10.46-17.02,19.2-24.84,26.22-7.82,7.01-14.84,11.67-21.05,13.97-4.83,2.3-10.58,2.47-17.25,.52-6.67-1.96-13.17-5.23-19.49-9.83-6.33-4.6-12.08-10.24-17.25-16.9-5.18-6.67-8.68-13.68-10.52-21.04-2.07-8.05-3.28-17.82-3.62-29.33-.35-11.5,.69-24.26,3.1-38.29,2.42-14.03,6.32-29.15,11.73-45.37,5.4-16.21,12.82-33.06,22.25-50.54-5.75,3.22-11.5,5.17-17.25,5.87-9.89,.46-16.33-.86-19.32-3.97-2.99-3.11-3.34-5.92-1.04-8.45,3.45,1.15,7.7,.75,12.77-1.21,5.06-1.95,10.4-4.83,16.04-8.62,5.63-3.79,11.27-8.11,16.9-12.94,5.63-4.83,10.75-9.43,15.35-13.8,4.6-4.37,8.45-8.11,11.56-11.21,3.1-3.1,4.88-4.88,5.35-5.35l1.04-1.04Z" style="fill: #adadad;"/>
    <path d="M683.13,559.62c0,.69,.57,1.15,1.72,1.38,1.15,.23,2.36,.34,3.62,.34s2.47,.06,3.62,.17c1.15,.12,1.73,.52,1.73,1.21,.23,1.38-.17,3.05-1.21,5-1.04,1.96-2.3,3.79-3.79,5.52-1.5,1.72-3.05,3.28-4.66,4.66-1.61,1.38-3.1,2.18-4.48,2.42-2.53,.46-5.52-.17-8.97-1.9-3.45-1.73-6.73-4.31-9.83-7.76s-5.58-7.7-7.42-12.76c-1.84-5.06-2.42-10.7-1.72-16.91,.69-5.98,2.42-13.51,5.17-22.6,2.76-9.08,6.32-18.8,10.69-29.15,4.37-10.35,9.49-20.75,15.35-31.22,5.87-10.46,12.36-20.06,19.49-28.81,3.22-1.38,6.5-1.38,9.83,0,3.33,1.38,6.32,3.4,8.97,6.04,2.64,2.65,4.54,5.64,5.69,8.97,1.15,3.34,1.03,6.16-.35,8.45-.92,2.07-2.71,5.98-5.35,11.73-2.65,5.75-5.64,12.37-8.97,19.84-3.34,7.48-6.85,15.41-10.52,23.81-3.68,8.4-6.96,16.21-9.83,23.46-2.88,7.25-5.18,13.46-6.9,18.63-1.73,5.17-2.36,8.34-1.9,9.49Zm47.61-193.2c2.3-1.61,5.69-2.07,10.18-1.38,4.49,.69,8.74,2.36,12.77,5,4.02,2.65,7.07,5.92,9.14,9.83,2.07,3.91,1.73,8.28-1.04,13.11-1.15,1.61-2.88,3.85-5.17,6.73-2.3,2.88-5,5.69-8.11,8.45s-6.5,5.12-10.18,7.07c-3.68,1.96-7.59,2.82-11.73,2.59-2.99-.46-5.64-1.78-7.94-3.97-2.3-2.18-3.68-5.12-4.14-8.8-.46-3.45-.23-7.3,.69-11.56,.92-4.25,2.24-8.28,3.97-12.08s3.62-7.07,5.69-9.83c2.07-2.76,4.02-4.48,5.87-5.17Z" style="fill: #adadad;"/>
    <path d="M783.87,535.47c-4.83-7.82-10.06-16.39-15.7-25.7-5.64-9.32-9.49-19.26-11.56-29.84-1.84-9.66-1.15-18.05,2.07-25.18,3.22-7.13,7.88-12.99,13.97-17.59,6.09-4.6,12.94-7.82,20.53-9.66,7.59-1.84,15.06-2.18,22.42-1.04,5.52,.69,9.66,2.53,12.42,5.52,2.76,2.99,4.6,6.5,5.52,10.52,.92,4.03,1.15,8.17,.69,12.42-.46,4.26-1.27,7.88-2.42,10.87-.69,1.15-2.82,.52-6.38-1.9-3.57-2.42-7.54-5-11.9-7.76-4.37-2.76-8.74-4.88-13.11-6.38-4.37-1.49-7.71-.74-10,2.24-2.3,3.22-.23,10.81,6.21,22.77,2.07,3.68,4.66,7.82,7.76,12.42,3.1,4.6,6.09,9.32,8.97,14.15,2.87,4.83,5.35,9.61,7.42,14.32,2.07,4.72,3.22,9.03,3.45,12.94,0,6.9-1.5,13.69-4.48,20.35-2.99,6.67-7.07,12.59-12.25,17.77s-11.27,9.32-18.29,12.42c-7.02,3.11-14.55,4.66-22.6,4.66-9.66-.23-17.71-2.59-24.15-7.07-6.44-4.48-11.21-10.18-14.32-17.08s-4.54-14.43-4.31-22.6c.23-8.16,2.3-15.92,6.21-23.29,2.53-4.6,4.77-6.78,6.73-6.56,1.95,.23,3.05,2.65,3.28,7.25,0,4.14,1.26,8.8,3.8,13.97,2.53,5.17,5.69,10,9.49,14.49s7.88,8.11,12.25,10.87c4.37,2.76,8.62,3.91,12.77,3.45,4.14-.46,6.84-2.87,8.11-7.25,1.26-4.37,.4-9.2-2.59-14.49Z" style="fill: #adadad;"/>
    <path d="M946.02,555.48c.23,.69,.92,1.21,2.07,1.55,1.15,.35,2.36,.58,3.62,.69,1.26,.12,2.47,.23,3.62,.34,1.15,.12,1.72,.52,1.72,1.21,.23,1.38-.17,2.99-1.21,4.83-1.04,1.84-2.3,3.62-3.79,5.35-1.5,1.73-3.11,3.17-4.83,4.31-1.73,1.15-3.28,1.84-4.66,2.07-2.53,.23-5.17-.69-7.93-2.76s-5.35-5-7.76-8.8-4.31-8.39-5.69-13.8c-1.38-5.4-1.96-11.21-1.72-17.42v-2.42c-6.67,9.43-12.54,17.25-17.6,23.46-5.06,6.21-9.55,11.1-13.45,14.66-3.91,3.57-7.36,6.09-10.35,7.59-2.99,1.49-5.75,2.24-8.28,2.24-3.22,0-6.73-.92-10.52-2.76-3.79-1.84-7.3-4.43-10.52-7.76-3.22-3.33-5.92-7.3-8.11-11.9-2.19-4.6-3.28-9.66-3.28-15.18,.23-5.52,1.43-11.78,3.62-18.8,2.18-7.01,4.94-14.32,8.28-21.91,3.33-7.59,7.07-15.18,11.21-22.77,4.14-7.59,8.28-14.72,12.42-21.39,4.14-6.67,8.16-12.59,12.07-17.77,3.91-5.17,7.36-9.26,10.35-12.25,2.07-1.15,4.6-1.04,7.59,.34,2.99,1.38,5.69,3.45,8.11,6.21s4.25,5.92,5.52,9.49c1.26,3.57,1.21,7.07-.17,10.52-.69,1.84-2.47,5.29-5.35,10.35-2.88,5.06-6.21,10.99-10,17.77-3.79,6.79-7.71,13.92-11.73,21.39-4.03,7.48-7.59,14.49-10.69,21.04s-5.41,12.13-6.9,16.73c-1.5,4.6-1.55,7.36-.17,8.28,1.38,.92,3.8,.52,7.25-1.21,3.45-1.72,7.76-5,12.94-9.83,5.18-4.83,11.15-11.33,17.94-19.49,6.78-8.16,14.2-18.11,22.25-29.84,5.29-9.2,10.58-18.63,15.87-28.29,5.29-9.66,10.92-18.51,16.9-26.57,3.22-1.38,6.38-1.09,9.49,.86,3.11,1.96,5.69,4.54,7.76,7.76,2.07,3.22,3.56,6.67,4.49,10.35,.92,3.68,.69,6.67-.69,8.97-.92,2.07-2.65,5.64-5.17,10.7-2.53,5.06-5.35,10.93-8.45,17.59-3.11,6.67-6.27,13.63-9.49,20.87-3.22,7.25-6.16,14.03-8.8,20.36-2.65,6.33-4.72,11.79-6.21,16.39-1.5,4.6-2.02,7.48-1.55,8.62Z" style="fill: #adadad;"/>
    <path d="M1102.99,559.97c1.38,.69,1.84,2.07,1.38,4.14-.46,2.07-1.55,4.26-3.28,6.55-1.73,2.3-3.85,4.31-6.38,6.04-2.53,1.73-5.06,2.36-7.59,1.9-4.6-.46-8.45-2.02-11.56-4.66-3.11-2.64-5.64-5.75-7.59-9.31-1.96-3.56-3.4-7.42-4.31-11.56-.92-4.14-1.38-7.94-1.38-11.39-.23-2.99-.12-6.09,.34-9.31,.46-3.22,1.15-6.67,2.07-10.35-5.75,8.51-11.1,16.22-16.04,23.12-4.95,6.9-9.55,12.77-13.8,17.59-4.26,4.83-8.17,8.51-11.73,11.04-3.57,2.53-6.85,3.68-9.83,3.45-2.07,0-4.78-.81-8.11-2.42-3.34-1.61-6.73-3.97-10.18-7.07-3.45-3.1-6.44-6.84-8.97-11.21-2.53-4.37-3.91-9.2-4.14-14.49-.46-4.6,.46-10.58,2.76-17.94,2.3-7.36,5.57-15.18,9.83-23.46,4.25-8.28,9.26-16.73,15.01-25.36,5.75-8.62,11.96-16.44,18.63-23.46,6.67-7.01,13.57-12.88,20.7-17.59,7.13-4.71,14.14-7.42,21.04-8.11,2.99-.23,6.15,.17,9.49,1.21,3.33,1.04,6.55,2.47,9.66,4.31,3.1,1.84,5.92,3.97,8.45,6.38,2.53,2.42,4.49,4.78,5.87,7.07,5.75-7.82,10.46-13.22,14.14-16.21,2.07-1.38,4.71-1.32,7.94,.17,3.22,1.5,6.32,3.57,9.31,6.21,2.99,2.65,5.46,5.35,7.42,8.11,1.95,2.76,2.59,4.6,1.9,5.52-2.3,2.99-5.17,7.13-8.62,12.42-3.45,5.29-7.07,11.16-10.87,17.59-3.79,6.44-7.65,13.28-11.56,20.53-3.91,7.24-7.48,14.32-10.7,21.22-3.22,6.9-5.87,13.34-7.93,19.32-2.07,5.98-3.11,11.04-3.11,15.18,0,1.61,.46,2.71,1.38,3.28,.92,.58,2.01,.92,3.28,1.04,1.26,.12,2.59,.17,3.97,.17s2.42,.12,3.11,.34Zm-83.15-13.46c2.07-.23,5.81-3.16,11.21-8.8,5.4-5.63,11.56-12.71,18.46-21.22,6.9-8.51,14.03-17.71,21.39-27.6,7.36-9.89,14.14-19.2,20.35-27.95-.69-2.99-1.84-5.98-3.45-8.97-1.61-2.99-2.99-4.25-4.14-3.79-5.29,1.61-10.87,5.29-16.73,11.04-5.87,5.75-11.5,12.31-16.91,19.67-5.41,7.36-10.47,15.13-15.18,23.29-4.72,8.17-8.51,15.58-11.38,22.25-2.88,6.67-4.78,12.13-5.69,16.39-.92,4.26-.23,6.16,2.07,5.69Z" style="fill: #adadad;"/>
    <path d="M1160.6,562.73c.23,.69,.92,1.15,2.07,1.38,1.15,.23,2.36,.34,3.62,.34s2.47,.06,3.62,.17c1.15,.12,1.72,.52,1.72,1.21,.23,1.38-.23,3.05-1.38,5-1.15,1.96-2.53,3.79-4.14,5.52-1.61,1.72-3.28,3.28-5,4.66-1.72,1.38-3.28,2.18-4.66,2.42-2.53,.46-5.12-.06-7.76-1.55-2.65-1.5-5-3.85-7.07-7.07-2.07-3.22-3.74-7.25-5-12.08-1.27-4.83-1.67-10.35-1.21-16.56,.46-9.43,2.7-20.7,6.73-33.81,4.02-13.11,9.08-26.96,15.18-41.57,6.09-14.6,12.94-29.5,20.53-44.68,7.59-15.18,15.18-29.44,22.77-42.78,7.59-13.34,14.78-25.36,21.56-36.05,6.78-10.7,12.47-18.92,17.08-24.67,2.99-1.38,6.44-1.26,10.35,.34,3.91,1.61,7.36,3.85,10.35,6.73,2.99,2.88,5.12,5.98,6.38,9.31,1.26,3.34,.98,5.92-.86,7.76-1.38,1.38-4.09,5.41-8.11,12.08-4.03,6.67-8.8,15.01-14.32,25.01-5.52,10-11.62,21.28-18.28,33.81-6.67,12.54-13.23,25.24-19.67,38.12-6.44,12.88-12.65,25.48-18.63,37.78-5.98,12.31-11.1,23.41-15.35,33.29-4.26,9.89-7.36,18.06-9.32,24.5-1.96,6.44-2.36,10.24-1.21,11.38Z" style="fill: #adadad;"/>
    <path d="M1260.99,535.47c-4.83-7.82-10.06-16.39-15.7-25.7-5.64-9.32-9.49-19.26-11.56-29.84-1.84-9.66-1.15-18.05,2.07-25.18,3.22-7.13,7.88-12.99,13.97-17.59,6.09-4.6,12.94-7.82,20.53-9.66,7.59-1.84,15.06-2.18,22.43-1.04,5.52,.69,9.66,2.53,12.42,5.52,2.76,2.99,4.6,6.5,5.52,10.52,.92,4.03,1.15,8.17,.69,12.42-.46,4.26-1.27,7.88-2.42,10.87-.69,1.15-2.82,.52-6.38-1.9-3.57-2.42-7.54-5-11.9-7.76-4.37-2.76-8.74-4.88-13.11-6.38-4.37-1.49-7.71-.74-10,2.24-2.3,3.22-.23,10.81,6.21,22.77,2.07,3.68,4.66,7.82,7.76,12.42,3.1,4.6,6.09,9.32,8.97,14.15,2.87,4.83,5.35,9.61,7.42,14.32,2.07,4.72,3.22,9.03,3.45,12.94,0,6.9-1.5,13.69-4.49,20.35-2.99,6.67-7.07,12.59-12.25,17.77-5.17,5.17-11.27,9.32-18.28,12.42-7.02,3.11-14.55,4.66-22.6,4.66-9.66-.23-17.71-2.59-24.15-7.07-6.44-4.48-11.21-10.18-14.32-17.08-3.1-6.9-4.54-14.43-4.31-22.6,.23-8.16,2.3-15.92,6.21-23.29,2.53-4.6,4.77-6.78,6.73-6.56,1.95,.23,3.05,2.65,3.28,7.25,0,4.14,1.26,8.8,3.79,13.97,2.53,5.17,5.69,10,9.49,14.49,3.79,4.49,7.88,8.11,12.25,10.87,4.37,2.76,8.62,3.91,12.76,3.45,4.14-.46,6.84-2.87,8.11-7.25,1.26-4.37,.4-9.2-2.59-14.49Z" style="fill: #adadad;"/>
  </g>
</svg>