<?xml version="1.0" encoding="utf-8"?>
<!-- Generator: Adobe Illustrator 27.0.1, SVG Export Plug-In . SVG Version: 6.00 Build 0)  -->
<svg version="1.1" id="Layer_1" xmlns="http://www.w3.org/2000/svg" xmlns:xlink="http://www.w3.org/1999/xlink" x="0px" y="0px"
	 viewBox="0 0 1778.4 608.4" style="enable-background:new 0 0 1778.4 608.4;" xml:space="preserve">
<style type="text/css">
	.st0{fill:#D5D6D5;}
	.st1{fill:#FCB913;}
	.st2{fill:#F37424;}
	.st3{fill:#FFFFFF;}
	.st4{fill:#008080;}
	.st5{fill:#ADADAD;}
</style>
<path class="st0" d="M187.6,169.5C128.5,138.8,62.7,121,0.2,121L0,121.4c31.2,13.7,60.9,33.9,87.3,58.5
	c42.7,1.6,81.2,10.7,115.2,26.2C198.4,193.6,193.4,181.3,187.6,169.5L187.6,169.5z"/>
<path class="st0" d="M219.9,313.5c-0.6-0.3-1.1-0.5-1.7-0.8c-15.9-7.8-32.4-14.5-49.1-19.9c-30.9-9.9-62.6-15.4-93.3-15.6
	c4.7,1.9,9.3,3.9,13.8,6.2c15.9,7.9,31.6,18.4,46.4,30.7c15.6,0.8,30.3,3,44.2,6.4c13.1,3.3,25.5,7.7,37.1,13.2
	c3.8,1.8,7.5,3.7,11.1,5.7C226.1,330.6,223.2,321.9,219.9,313.5L219.9,313.5z"/>
<path class="st1" d="M343.5,574.5c0-59.3-48.8-113.8-107.9-146.7c-7.6-4.2-15.3-8.1-23.1-11.6c-2.8-1.2-5.6-2.4-8.4-3.6
	c-3-1.2-6-2.4-9.1-3.5c-14.5-5.3-29.1-9.2-43.2-11.5c-9.6-1.5-19.1-2.3-28.5-2.3v-81.5c4.3,0,8.6,0.1,12.8,0.3
	c15.6,0.8,30.3,3,44.2,6.4c13.1,3.3,25.5,7.7,37.1,13.2c3.8,1.8,7.5,3.7,11.1,5.7C304,381.6,343.5,471,343.5,574.5z"/>
<path class="st2" d="M384,535.8c-1.1-94.6-73.7-177.2-164.2-222.3c-0.5-1.3-1.1-2.6-1.6-4c0,1,0,2.1,0,3.1
	c-15.9-7.8-32.4-14.5-49.1-19.9c-30.9-9.9-62.6-15.4-93.3-15.6c-0.5-0.2-1-0.4-1.6-0.6v-97c4.4,0,8.7,0.1,13,0.2
	c42.7,1.6,81.2,10.7,115.2,26.2C319.2,259.3,383.4,386.8,384,535.8z"/>
<path class="st3" d="M218.2,312.7c0.6,0.3,1.1,0.5,1.7,0.8c-0.5-1.3-1.1-2.6-1.6-4C218.2,310.6,218.2,311.6,218.2,312.7z"/>
<path class="st4" d="M384,444.3c0-116-86.7-217.7-196.4-274.8C128.5,138.8,62.7,121,0.2,121H0V0C245.4,0,384,198.9,384,444.3z"/>
<g>
	<path class="st3" d="M457.9,307.2c-13.1-6.9-22.8-15.7-29-26.3c-6.2-10.6-9.3-21.5-9.3-32.9c0-7.6,1.3-14.4,3.8-20.4
		c3.1-7.4,7.8-13,14.2-17c6.4-4,13.1-5.9,20.1-5.9c8.8,0,15.8,2.5,21.2,7.6c-7.1,4-12.5,9.6-16.3,17c-3.8,7.4-5.7,15.3-5.7,23.7
		c0,12.7,4,23.7,12.1,33.1c8.1,9.3,19.3,14,33.7,14c2.8,0,5.1-0.1,6.8-0.4c11.3-1.1,20.9-5.6,28.8-13.6s11.9-17.7,11.9-29.3
		c0-3.4-0.4-6.9-1.3-10.6c-2-9.6-7.3-18.7-16.1-27.1s-21.1-18.4-36.9-29.7c-15.3-11.3-27.6-21.2-36.9-29.7
		c-9.3-8.5-17.3-18.3-24-29.5c-6.6-11.2-10-23.5-10-37.1c0-16.1,4.1-30.6,12.3-43.5c8.2-12.9,19.6-22.8,34.3-29.9
		c14.7-7.1,31.5-10.6,50.5-10.6c12.7,0,23.3,2.3,31.8,6.8c8.5,4.5,17.2,10.8,26.3,18.7c4.5,4.2,8.3,7.4,11.5,9.5
		c3.1,2.1,6.4,3.2,9.8,3.2c2.5,0,4.8-0.6,6.8-1.7l3,5.1c-13,10.2-24.6,21.6-34.8,34.3s-18.2,24.7-24.2,36l-5.1-5.1
		c5.7-10.7,8.5-22.9,8.5-36.5s-3.2-25.8-9.5-35.8c-6.4-10-15.3-15-26.9-15c-10.2,0-18.6,3.8-25.2,11.2s-10,16.9-10,28.2
		c0,9.9,2.9,20.3,8.7,31.2c5.8,10.9,14.6,21.3,26.5,31.2c14.1,11.6,20.8,17,19.9,16.1c15.3,11.9,27.2,21.8,35.8,29.7
		c8.6,7.9,16.2,16.6,22.7,26.1s10.5,19.6,11.9,30.3c0.3,2.3,0.4,5.7,0.4,10.2c0,23.2-9,41.4-27.1,54.7
		c-18.1,13.3-43.2,19.9-75.5,19.9C487.5,317.6,471,314.1,457.9,307.2L457.9,307.2z"/>
	<path class="st3" d="M634.5,416.8c3.7-0.6,6.7-3.1,9.1-7.6c2.4-4.5,3.6-11.3,3.6-20.4V132.3c0-10.4-1.8-18.2-5.5-23.3
		c-3.7-5.1-8.2-7.8-13.6-8.1v-4.7c12.2,0.8,24.2,1.3,36,1.3s23.7-0.4,35.6-1.3c2,0,3,2.5,3,7.4v9.1c6.2-6.5,12.7-11.7,19.5-15.7
		s16.7-5.9,29.7-5.9c14.7,0,27.9,4.9,39.6,14.8c11.7,9.9,20.9,23.2,27.6,40.1s10,35.4,10,55.8c0,24.3-4.4,44.4-13.1,60.2
		c-8.8,15.8-19.7,27.3-32.9,34.3c-13.1,7.1-26.7,10.6-40.5,10.6c-7.9,0-15-1.1-21.4-3.2s-11.4-5.1-15-9.1v70
		c-4.8-0.3-9.2,1.6-13.1,5.7c-4,4.1-8.9,10.5-14.8,19.3c-7.6,11.3-14.6,20-20.8,26.1c-6.2,6.1-13.8,9.1-22.9,9.1L634.5,416.8
		L634.5,416.8z M754.5,278.1c5.1-9,9-20.8,11.9-35.4c2.8-14.6,4.2-30.2,4.2-46.9c0-27.4-3-49.2-8.9-65.5
		c-5.9-16.2-13.6-24.4-22.9-24.4c-2.3,0-4.5,0.4-6.8,1.3c-9,4-15.5,13.1-19.5,27.6c-4,14.4-6.1,34.2-6.4,59.4v32.2
		c0.6,26.3,3.9,44.2,10,53.6c6.1,9.5,13.2,13.6,21.4,12.5C743.7,292,749.4,287.2,754.5,278.1L754.5,278.1z"/>
	<path class="st3" d="M906.2,312.1c-15.8,0-29.8-4.4-42-13.1c-12.2-8.8-18.2-22.5-18.2-41.1c0-12.4,3.2-23.3,9.8-32.6
		c6.5-9.3,14.3-17.2,23.5-23.5c9.2-6.4,20.8-13.2,35-20.6c15.3-8.2,26.4-15.1,33.5-20.8c7.1-5.6,10.6-12.1,10.6-19.5
		c0-17.2-8.1-27.7-24.2-31.4c-0.8-0.3-2.3-0.4-4.2-0.4c-4.5,0-8.3,1.1-11.2,3.2s-4.5,4.7-4.5,7.8c0,2.3,1,4.5,3,6.8
		c4.2,4.2,6.4,10.6,6.4,19.1c0,9.1-3.1,16.8-9.3,23.1c-6.2,6.4-13.8,9.5-22.9,9.5s-16.8-3.2-23.1-9.5s-9.5-14.1-9.5-23.1
		c0-10.2,3.7-19,11.2-26.5c7.5-7.5,17.2-13.3,29-17.4c11.9-4.1,24.2-6.2,36.9-6.2c15,0,28.6,2.8,40.9,8.5
		c12.3,5.7,22.1,14.2,29.5,25.6s11,25.4,11,41.8v98.8c0,10.5,1.9,18.2,5.7,23.3c3.8,5.1,8.4,7.6,13.8,7.6v5.1
		c-11.9-0.9-23.9-1.3-36-1.3s-23.7,0.4-35.6,1.3c-1.4,0-2.3-1.2-2.8-3.6c-0.4-2.4-0.6-4.9-0.6-7.6v-5.7
		c-11.6,12.7-27.8,20.1-48.8,22L906.2,312.1L906.2,312.1z M953.7,268.6c3.1-12.6,4.8-32.7,5.1-60.4v-42.8
		c-2.5,5.4-5.5,10.2-8.7,14.4c-3.2,4.2-7.7,9.5-13.4,15.7c-9,9.6-16.4,18.8-22,27.6c-5.7,8.8-9.8,19.9-12.3,33.5
		c-0.6,2.3-0.8,5.7-0.8,10.2c0,7.9,1.8,14.7,5.5,20.4c3.7,5.7,8.8,8.5,15.3,8.5c2.8,0,6.4-0.7,10.6-2.1
		C943.7,289.5,950.6,281.2,953.7,268.6L953.7,268.6z"/>
	<path class="st3" d="M1053.8,301.5c5.4,0,9.9-2.5,13.6-7.6c3.7-5.1,5.5-12.9,5.5-23.3V131.9c0-10.4-1.8-18.2-5.5-23.1
		c-3.7-4.9-8.2-7.4-13.6-7.4v-5.1c13.8,0.8,25.4,1.3,34.8,1.3c8.2,0,17.1-0.3,26.7-0.8c3.1-0.3,7.1-0.4,11.9-0.4
		c3.1,0,4.7,6.9,4.7,20.8c8.5-15.8,23-23.7,43.7-23.7c12.4,0,23.2,4.2,32.4,12.7c9.2,8.5,13.8,19.4,13.8,32.7
		c0,10.2-3.1,18.9-9.3,26.1s-14,10.8-23.3,10.8s-16.8-3.1-23.1-9.3c-6.4-6.2-9.5-13.9-9.5-22.9s2.1-15.3,6.4-19.5
		c2.5-3.1,3.8-5.9,3.8-8.5c0-2.3-0.8-4.2-2.3-5.7c-1.6-1.6-3.6-2.3-6.2-2.3c-2,0-4,0.6-5.9,1.7c-6.8,3.4-11.9,10.4-15.3,21
		s-5.1,29-5.1,55.3v85.2c0,10.5,1.8,18.2,5.5,23.3c3.7,5.1,8.2,7.6,13.6,7.6v5.1c-22.1-1.1-38.2-1.7-48.3-1.7s-26.4,0.6-48.8,1.7
		L1053.8,301.5L1053.8,301.5z"/>
	<path class="st3" d="M1305.4,360.6c-6.4-6.1-13.1-14.6-20.1-25.6c-6.2-9-11.3-15.6-15.3-19.7c-4-4.1-8.3-6-13.1-5.7V117.9h-18.2
		v-17.8h0.4c9,0,16.4-1.6,22.1-4.9c5.7-3.2,10-7.2,12.9-11.9s6.3-11.1,10-19.3c4.2-9.9,8.5-17.6,12.7-23.1s10.4-9.3,18.7-11.2
		l4.7,0.9c-2,3.1-3.2,7.4-3.6,12.9c-0.4,5.5-0.6,13.8-0.6,24.8v31.8h17v17.8h-17v215.8c0,9,1.2,15.8,3.6,20.4
		c2.4,4.5,5.3,7.1,8.7,7.6v8.1C1319.3,369.7,1311.8,366.7,1305.4,360.6L1305.4,360.6z"/>
	<path class="st3" d="M1409.9,312.1c-15.8,0-29.8-4.4-42-13.1c-12.2-8.8-18.2-22.5-18.2-41.1c0-12.4,3.2-23.3,9.8-32.6
		c6.5-9.3,14.3-17.2,23.5-23.5c9.2-6.4,20.8-13.2,35-20.6c15.3-8.2,26.4-15.1,33.5-20.8c7.1-5.6,10.6-12.1,10.6-19.5
		c0-17.2-8.1-27.7-24.2-31.4c-0.8-0.3-2.3-0.4-4.2-0.4c-4.5,0-8.3,1.1-11.2,3.2s-4.4,4.7-4.4,7.8c0,2.3,1,4.5,3,6.8
		c4.2,4.2,6.4,10.6,6.4,19.1c0,9.1-3.1,16.8-9.3,23.1s-13.8,9.5-22.9,9.5s-16.8-3.2-23.1-9.5s-9.5-14.1-9.5-23.1
		c0-10.2,3.7-19,11.2-26.5c7.5-7.5,17.2-13.3,29-17.4c11.9-4.1,24.2-6.2,36.9-6.2c15,0,28.6,2.8,40.9,8.5
		c12.3,5.7,22.1,14.2,29.5,25.6c7.3,11.4,11,25.4,11,41.8v98.8c0,10.5,1.9,18.2,5.7,23.3c3.8,5.1,8.4,7.6,13.8,7.6v5.1
		c-11.9-0.9-23.9-1.3-36-1.3s-23.7,0.4-35.6,1.3c-1.4,0-2.3-1.2-2.8-3.6c-0.4-2.4-0.6-4.9-0.6-7.6v-5.7
		c-11.6,12.7-27.8,20.1-48.8,22L1409.9,312.1L1409.9,312.1z M1457.4,268.6c3.1-12.6,4.8-32.7,5.1-60.4v-42.8
		c-2.5,5.4-5.4,10.2-8.7,14.4c-3.2,4.2-7.7,9.5-13.4,15.7c-9.1,9.6-16.4,18.8-22.1,27.6c-5.7,8.8-9.8,19.9-12.3,33.5
		c-0.6,2.3-0.8,5.7-0.8,10.2c0,7.9,1.8,14.7,5.5,20.4c3.7,5.7,8.8,8.5,15.3,8.5c2.8,0,6.4-0.7,10.6-2.1
		C1447.4,289.5,1454.3,281.2,1457.4,268.6L1457.4,268.6z"/>
	<path class="st3" d="M1557.5,301.5c5.4,0,9.9-2.5,13.6-7.6c3.7-5.1,5.5-12.9,5.5-23.3V131.9c0-10.4-1.8-18.2-5.5-23.1
		c-3.7-4.9-8.2-7.4-13.6-7.4v-5.1c13.8,0.8,25.4,1.3,34.8,1.3c8.2,0,17.1-0.3,26.7-0.8c3.1-0.3,7.1-0.4,11.9-0.4
		c3.1,0,4.7,6.9,4.7,20.8c5.9-7.6,13.6-13.6,22.9-17.8c9.3-4.2,19.2-6.4,29.7-6.4c12.4,0,24,3,34.6,9.1
		c10.6,6.1,19.2,15.6,25.9,28.4c6.6,12.9,10,28.9,10,48.1l0.4,58.1v33.9c0,10.5,1.9,18.2,5.7,23.3c3.8,5.1,8.4,7.6,13.8,7.6v5.1
		c-22.3-1.1-38.6-1.7-48.8-1.7s-26.4,0.6-48.8,1.7v-5.1c5.4,0,10-2.5,13.8-7.6c3.8-5.1,5.7-12.9,5.7-23.3v-22.1
		c-0.3-12.1-0.4-28.3-0.4-48.3c0-22.9-1-40.8-3-53.8c-2-13-5-22.3-9.1-27.8s-9.7-8.3-16.8-8.3c-4.5,0-9.4,2.3-14.6,6.8
		c-5.2,4.5-10,12.4-14.2,23.5c-4.2,11.2-6.5,26.1-6.8,44.7l-0.4,121.3c-11.9-0.9-24.7-1.3-38.6-1.3s-26.6,0.4-39,1.3L1557.5,301.5
		L1557.5,301.5z"/>
</g>
<g>
	<path class="st5" d="M543.8,335l1.7-2.1c1.4-2.8,3.8-3.7,7.4-2.9c3.6,0.8,7.1,2.5,10.5,5s6.3,5.6,8.5,9.3c2.2,3.7,2.5,7,0.9,10
		c-12.4,15.4-23.2,31.7-32.3,48.8c-9.1,17.1-16.6,34-22.6,50.5c-6,16.6-10.5,32.3-13.5,47.3c-3,15-4.7,28.1-5,39.3
		s0.6,20.2,2.8,26.7c2.2,6.6,5.5,9.6,9.8,9.1c4.1-0.2,9.6-3.2,16.4-8.8c6.8-5.6,14.2-13.2,22.2-22.6c8-9.4,16.6-20.4,25.5-33
		c9-12.5,17.8-25.8,26.4-39.9s16.8-28.5,24.7-43.3c7.8-14.8,14.7-29.3,20.7-43.3c6-14,10.7-27.3,14.2-39.9c3.5-12.5,5.2-23.5,5.2-33
		c-0.2-2.3-1.2-3.6-2.8-3.8s-3.1-0.3-4.5-0.2s-2.2,0-2.6-0.5c-0.3-0.5,0.6-2.1,2.9-4.8c3.7-4.4,7.2-6.4,10.7-6s6.5,2.1,9.1,5.2
		s4.7,7.1,6,11.9s2,9.5,1.7,14.1c0.9,9.7,0.1,20.8-2.4,33.5c-2.5,12.6-6.4,26-11.6,40.2s-11.4,28.7-18.6,43.6s-15.1,29.6-23.5,44
		c-8.4,14.4-17.1,28.1-26,41.2s-17.8,24.9-26.6,35.4c-8.7,10.5-17,19.2-24.8,26.2c-7.8,7-14.8,11.7-21,14
		c-4.8,2.3-10.6,2.5-17.2,0.5c-6.7-2-13.2-5.2-19.5-9.8c-6.3-4.6-12.1-10.2-17.2-16.9c-5.2-6.7-8.7-13.7-10.5-21
		c-2.1-8-3.3-17.8-3.6-29.3c-0.4-11.5,0.7-24.3,3.1-38.3c2.4-14,6.3-29.1,11.7-45.4c5.4-16.2,12.8-33.1,22.2-50.5
		c-5.8,3.2-11.5,5.2-17.2,5.9c-9.9,0.5-16.3-0.9-19.3-4c-3-3.1-3.3-5.9-1-8.5c3.5,1.1,7.7,0.8,12.8-1.2c5.1-2,10.4-4.8,16-8.6
		c5.6-3.8,11.3-8.1,16.9-12.9c5.6-4.8,10.8-9.4,15.4-13.8s8.5-8.1,11.6-11.2c3.1-3.1,4.9-4.9,5.3-5.4L543.8,335L543.8,335z"/>
	<path class="st5" d="M683.1,559.6c0,0.7,0.6,1.2,1.7,1.4c1.2,0.2,2.4,0.3,3.6,0.3s2.5,0.1,3.6,0.2c1.2,0.1,1.7,0.5,1.7,1.2
		c0.2,1.4-0.2,3-1.2,5c-1,2-2.3,3.8-3.8,5.5c-1.5,1.7-3,3.3-4.7,4.7c-1.6,1.4-3.1,2.2-4.5,2.4c-2.5,0.5-5.5-0.2-9-1.9
		c-3.5-1.7-6.7-4.3-9.8-7.8s-5.6-7.7-7.4-12.8c-1.8-5.1-2.4-10.7-1.7-16.9c0.7-6,2.4-13.5,5.2-22.6c2.8-9.1,6.3-18.8,10.7-29.1
		s9.5-20.8,15.3-31.2c5.9-10.5,12.4-20.1,19.5-28.8c3.2-1.4,6.5-1.4,9.8,0s6.3,3.4,9,6c2.6,2.6,4.5,5.6,5.7,9c1.2,3.3,1,6.2-0.3,8.5
		c-0.9,2.1-2.7,6-5.3,11.7c-2.7,5.8-5.6,12.4-9,19.8c-3.3,7.5-6.8,15.4-10.5,23.8c-3.7,8.4-7,16.2-9.8,23.5
		c-2.9,7.2-5.2,13.5-6.9,18.6C683.3,555.3,682.7,558.5,683.1,559.6L683.1,559.6z M730.7,366.4c2.3-1.6,5.7-2.1,10.2-1.4
		s8.7,2.4,12.8,5c4,2.6,7.1,5.9,9.1,9.8c2.1,3.9,1.7,8.3-1,13.1c-1.2,1.6-2.9,3.9-5.2,6.7c-2.3,2.9-5,5.7-8.1,8.5s-6.5,5.1-10.2,7.1
		c-3.7,2-7.6,2.8-11.7,2.6c-3-0.5-5.6-1.8-7.9-4c-2.3-2.2-3.7-5.1-4.1-8.8c-0.5-3.5-0.2-7.3,0.7-11.6c0.9-4.2,2.2-8.3,4-12.1
		s3.6-7.1,5.7-9.8C726.9,368.8,728.9,367.1,730.7,366.4L730.7,366.4z"/>
	<path class="st5" d="M783.9,535.5c-4.8-7.8-10.1-16.4-15.7-25.7c-5.6-9.3-9.5-19.3-11.6-29.8c-1.8-9.7-1.2-18,2.1-25.2
		c3.2-7.1,7.9-13,14-17.6c6.1-4.6,12.9-7.8,20.5-9.7s15.1-2.2,22.4-1c5.5,0.7,9.7,2.5,12.4,5.5s4.6,6.5,5.5,10.5
		c0.9,4,1.2,8.2,0.7,12.4c-0.5,4.3-1.3,7.9-2.4,10.9c-0.7,1.1-2.8,0.5-6.4-1.9c-3.6-2.4-7.5-5-11.9-7.8c-4.4-2.8-8.7-4.9-13.1-6.4
		c-4.4-1.5-7.7-0.7-10,2.2c-2.3,3.2-0.2,10.8,6.2,22.8c2.1,3.7,4.7,7.8,7.8,12.4c3.1,4.6,6.1,9.3,9,14.1c2.9,4.8,5.3,9.6,7.4,14.3
		c2.1,4.7,3.2,9,3.5,12.9c0,6.9-1.5,13.7-4.5,20.3c-3,6.7-7.1,12.6-12.2,17.8s-11.3,9.3-18.3,12.4c-7,3.1-14.5,4.7-22.6,4.7
		c-9.7-0.2-17.7-2.6-24.2-7.1s-11.2-10.2-14.3-17.1s-4.5-14.4-4.3-22.6c0.2-8.2,2.3-15.9,6.2-23.3c2.5-4.6,4.8-6.8,6.7-6.6
		c2,0.2,3,2.6,3.3,7.2c0,4.1,1.3,8.8,3.8,14c2.5,5.2,5.7,10,9.5,14.5s7.9,8.1,12.2,10.9s8.6,3.9,12.8,3.5c4.1-0.5,6.8-2.9,8.1-7.2
		C787.7,545.6,786.9,540.8,783.9,535.5L783.9,535.5z"/>
	<path class="st5" d="M946,555.5c0.2,0.7,0.9,1.2,2.1,1.5c1.2,0.3,2.4,0.6,3.6,0.7c1.3,0.1,2.5,0.2,3.6,0.3c1.2,0.1,1.7,0.5,1.7,1.2
		c0.2,1.4-0.2,3-1.2,4.8c-1,1.8-2.3,3.6-3.8,5.3c-1.5,1.7-3.1,3.2-4.8,4.3c-1.7,1.2-3.3,1.8-4.7,2.1c-2.5,0.2-5.2-0.7-7.9-2.8
		s-5.3-5-7.8-8.8s-4.3-8.4-5.7-13.8c-1.4-5.4-2-11.2-1.7-17.4v-2.4c-6.7,9.4-12.5,17.2-17.6,23.5s-9.5,11.1-13.5,14.7
		c-3.9,3.6-7.4,6.1-10.3,7.6c-3,1.5-5.8,2.2-8.3,2.2c-3.2,0-6.7-0.9-10.5-2.8c-3.8-1.8-7.3-4.4-10.5-7.8c-3.2-3.3-5.9-7.3-8.1-11.9
		c-2.2-4.6-3.3-9.7-3.3-15.2c0.2-5.5,1.4-11.8,3.6-18.8c2.2-7,4.9-14.3,8.3-21.9c3.3-7.6,7.1-15.2,11.2-22.8s8.3-14.7,12.4-21.4
		c4.1-6.7,8.2-12.6,12.1-17.8c3.9-5.2,7.4-9.3,10.3-12.2c2.1-1.1,4.6-1,7.6,0.3c3,1.4,5.7,3.5,8.1,6.2s4.2,5.9,5.5,9.5
		c1.3,3.6,1.2,7.1-0.2,10.5c-0.7,1.8-2.5,5.3-5.3,10.4s-6.2,11-10,17.8c-3.8,6.8-7.7,13.9-11.7,21.4c-4,7.5-7.6,14.5-10.7,21
		s-5.4,12.1-6.9,16.7c-1.5,4.6-1.5,7.4-0.2,8.3c1.4,0.9,3.8,0.5,7.2-1.2c3.5-1.7,7.8-5,12.9-9.8s11.2-11.3,17.9-19.5
		c6.8-8.2,14.2-18.1,22.2-29.8c5.3-9.2,10.6-18.6,15.9-28.3s10.9-18.5,16.9-26.6c3.2-1.4,6.4-1.1,9.5,0.9c3.1,2,5.7,4.5,7.8,7.8
		s3.6,6.7,4.5,10.4c0.9,3.7,0.7,6.7-0.7,9c-0.9,2.1-2.7,5.6-5.2,10.7c-2.5,5.1-5.3,10.9-8.5,17.6c-3.1,6.7-6.3,13.6-9.5,20.9
		c-3.2,7.2-6.2,14-8.8,20.4c-2.7,6.3-4.7,11.8-6.2,16.4C946.1,551.4,945.6,554.3,946,555.5L946,555.5z"/>
	<path class="st5" d="M1103,560c1.4,0.7,1.8,2.1,1.4,4.1s-1.6,4.3-3.3,6.5c-1.7,2.3-3.8,4.3-6.4,6s-5.1,2.4-7.6,1.9
		c-4.6-0.5-8.4-2-11.6-4.7c-3.1-2.6-5.6-5.8-7.6-9.3c-2-3.6-3.4-7.4-4.3-11.6c-0.9-4.1-1.4-7.9-1.4-11.4c-0.2-3-0.1-6.1,0.3-9.3
		s1.2-6.7,2.1-10.3c-5.8,8.5-11.1,16.2-16,23.1c-4.9,6.9-9.6,12.8-13.8,17.6c-4.3,4.8-8.2,8.5-11.7,11c-3.6,2.5-6.8,3.7-9.8,3.5
		c-2.1,0-4.8-0.8-8.1-2.4c-3.3-1.6-6.7-4-10.2-7.1c-3.5-3.1-6.4-6.8-9-11.2c-2.5-4.4-3.9-9.2-4.1-14.5c-0.5-4.6,0.5-10.6,2.8-17.9
		s5.6-15.2,9.8-23.5c4.2-8.3,9.3-16.7,15-25.4c5.8-8.6,12-16.4,18.6-23.5c6.7-7,13.6-12.9,20.7-17.6s14.1-7.4,21-8.1
		c3-0.2,6.2,0.2,9.5,1.2c3.3,1,6.6,2.5,9.7,4.3c3.1,1.8,5.9,4,8.4,6.4c2.5,2.4,4.5,4.8,5.9,7.1c5.8-7.8,10.5-13.2,14.1-16.2
		c2.1-1.4,4.7-1.3,7.9,0.2c3.2,1.5,6.3,3.6,9.3,6.2c3,2.6,5.5,5.4,7.4,8.1c1.9,2.8,2.6,4.6,1.9,5.5c-2.3,3-5.2,7.1-8.6,12.4
		s-7.1,11.2-10.9,17.6c-3.8,6.4-7.7,13.3-11.6,20.5c-3.9,7.2-7.5,14.3-10.7,21.2c-3.2,6.9-5.9,13.3-7.9,19.3c-2.1,6-3.1,11-3.1,15.2
		c0,1.6,0.5,2.7,1.4,3.3c0.9,0.6,2,0.9,3.3,1c1.3,0.1,2.6,0.2,4,0.2S1102.3,559.8,1103,560L1103,560z M1019.8,546.5
		c2.1-0.2,5.8-3.2,11.2-8.8c5.4-5.6,11.6-12.7,18.5-21.2c6.9-8.5,14-17.7,21.4-27.6s14.1-19.2,20.3-28c-0.7-3-1.8-6-3.4-9
		s-3-4.2-4.1-3.8c-5.3,1.6-10.9,5.3-16.7,11c-5.9,5.8-11.5,12.3-16.9,19.7c-5.4,7.4-10.5,15.1-15.2,23.3
		c-4.7,8.2-8.5,15.6-11.4,22.2c-2.9,6.7-4.8,12.1-5.7,16.4C1016.8,545.1,1017.5,547,1019.8,546.5L1019.8,546.5z"/>
	<path class="st5" d="M1160.6,562.7c0.2,0.7,0.9,1.2,2.1,1.4c1.2,0.2,2.4,0.3,3.6,0.3s2.5,0.1,3.6,0.2c1.2,0.1,1.7,0.5,1.7,1.2
		c0.2,1.4-0.2,3-1.4,5c-1.2,2-2.5,3.8-4.1,5.5c-1.6,1.7-3.3,3.3-5,4.7c-1.7,1.4-3.3,2.2-4.7,2.4c-2.5,0.5-5.1-0.1-7.8-1.5
		c-2.7-1.5-5-3.8-7.1-7.1c-2.1-3.2-3.7-7.2-5-12.1c-1.3-4.8-1.7-10.3-1.2-16.6c0.5-9.4,2.7-20.7,6.7-33.8c4-13.1,9.1-27,15.2-41.6
		c6.1-14.6,12.9-29.5,20.5-44.7c7.6-15.2,15.2-29.4,22.8-42.8s14.8-25.4,21.6-36c6.8-10.7,12.5-18.9,17.1-24.7
		c3-1.4,6.4-1.3,10.3,0.3c3.9,1.6,7.4,3.9,10.3,6.7s5.1,6,6.4,9.3c1.3,3.3,1,5.9-0.9,7.8c-1.4,1.4-4.1,5.4-8.1,12.1
		c-4,6.7-8.8,15-14.3,25c-5.5,10-11.6,21.3-18.3,33.8c-6.7,12.5-13.2,25.2-19.7,38.1c-6.4,12.9-12.7,25.5-18.6,37.8
		c-6,12.3-11.1,23.4-15.3,33.3c-4.3,9.9-7.4,18.1-9.3,24.5S1159.4,561.6,1160.6,562.7L1160.6,562.7z"/>
	<path class="st5" d="M1261,535.5c-4.8-7.8-10.1-16.4-15.7-25.7c-5.6-9.3-9.5-19.3-11.6-29.8c-1.8-9.7-1.2-18,2.1-25.2
		s7.9-13,14-17.6s12.9-7.8,20.5-9.7c7.6-1.8,15.1-2.2,22.4-1c5.5,0.7,9.7,2.5,12.4,5.5s4.6,6.5,5.5,10.5c0.9,4,1.2,8.2,0.7,12.4
		c-0.5,4.3-1.3,7.9-2.4,10.9c-0.7,1.1-2.8,0.5-6.4-1.9c-3.6-2.4-7.5-5-11.9-7.8c-4.4-2.8-8.7-4.9-13.1-6.4c-4.4-1.5-7.7-0.7-10,2.2
		c-2.3,3.2-0.2,10.8,6.2,22.8c2.1,3.7,4.7,7.8,7.8,12.4s6.1,9.3,9,14.1c2.9,4.8,5.3,9.6,7.4,14.3c2.1,4.7,3.2,9,3.4,12.9
		c0,6.9-1.5,13.7-4.5,20.3c-3,6.7-7.1,12.6-12.2,17.8c-5.2,5.2-11.3,9.3-18.3,12.4c-7,3.1-14.6,4.7-22.6,4.7
		c-9.7-0.2-17.7-2.6-24.2-7.1c-6.4-4.5-11.2-10.2-14.3-17.1c-3.1-6.9-4.5-14.4-4.3-22.6c0.2-8.2,2.3-15.9,6.2-23.3
		c2.5-4.6,4.8-6.8,6.7-6.6c1.9,0.2,3.1,2.6,3.3,7.2c0,4.1,1.3,8.8,3.8,14s5.7,10,9.5,14.5c3.8,4.5,7.9,8.1,12.2,10.9
		s8.6,3.9,12.8,3.5c4.1-0.5,6.8-2.9,8.1-7.2C1264.8,545.6,1264,540.8,1261,535.5L1261,535.5z"/>
</g>
</svg>
